# xmcd
#
# Track frame offsets:
#	150
#	9227
#	17035
#	27817
#	36512
#	47582
#	55588
#	66701
#	81566
#	92083
#
# Disc length: 1340 seconds
#
# Revision: 1
# Processed by: cddbd v1.5.2PL0 Copyright (c) Steve Scherf et al.
# Submitted via: audiograbber 1.83.01
#
DISCID=7d053a0a
DTITLE=Roger Miller - Super Hits
DYEAR=1992
DGENRE=Country
TTITLE0=Chug A Lug
TTITLE1=Dang Me
TTITLE2=Don't We All Have The Right
TTITLE3=England Swings
TTITLE4=Husbands And Wives
TTITLE5=In The Summertime
TTITLE6=King Of The Road
TTITLE7=Me And Bobby McGee
TTITLE8=Please Release Me
TTITLE9=You Can't Rollerskate In A Buffalo Herd
EXTD=
EXTT0=
EXTT1=
EXTT2=
EXTT3=
EXTT4=
EXTT5=
EXTT6=
EXTT7=
EXTT8=
EXTT9=
PLAYORDER=
